<mxfile host="app.diagrams.net" modified="2022-05-10T06:26:58.768Z" agent="5.0 (Macintosh; Intel Mac OS X 10_15_7) AppleWebKit/605.1.15 (KHTML, like Gecko) Version/15.4 Safari/605.1.15" etag="V663OMAIQNt_JnfHrWvR" version="18.0.2" type="github">
  <diagram id="4h7j1j8vRIFUD14Cbp2Q" name="Page-1">
    <mxGraphModel dx="1731" dy="1075" grid="1" gridSize="13" guides="1" tooltips="1" connect="1" arrows="1" fold="1" page="1" pageScale="1" pageWidth="3300" pageHeight="4681" math="0" shadow="0">
      <root>
        <mxCell id="0" />
        <mxCell id="1" parent="0" />
        <mxCell id="7H8No6hqOHkvQwwdOSy6-25" value="" style="edgeStyle=orthogonalEdgeStyle;rounded=0;orthogonalLoop=1;jettySize=auto;html=1;fontFamily=Comic Sans MS;" edge="1" parent="1" source="7H8No6hqOHkvQwwdOSy6-12" target="7H8No6hqOHkvQwwdOSy6-24">
          <mxGeometry relative="1" as="geometry" />
        </mxCell>
        <mxCell id="7H8No6hqOHkvQwwdOSy6-12" value="" style="whiteSpace=wrap;html=1;aspect=fixed;fillColor=#d5e8d4;strokeColor=#82b366;" vertex="1" parent="1">
          <mxGeometry x="117" y="91" width="312" height="312" as="geometry" />
        </mxCell>
        <mxCell id="7H8No6hqOHkvQwwdOSy6-13" value="Selamat datang di tokoh elektronik" style="text;html=1;strokeColor=#000000;fillColor=#fff2cc;align=center;verticalAlign=middle;whiteSpace=wrap;rounded=0;fontStyle=1;fontFamily=Comic Sans MS;" vertex="1" parent="1">
          <mxGeometry x="123.5" y="104" width="299" height="30" as="geometry" />
        </mxCell>
        <mxCell id="7H8No6hqOHkvQwwdOSy6-14" value="Masukkan Username" style="rounded=1;whiteSpace=wrap;html=1;fillColor=#dae8fc;strokeColor=#6c8ebf;" vertex="1" parent="1">
          <mxGeometry x="188.5" y="182" width="169" height="26" as="geometry" />
        </mxCell>
        <mxCell id="7H8No6hqOHkvQwwdOSy6-15" value="Masukkan Password" style="rounded=1;whiteSpace=wrap;html=1;fillColor=#dae8fc;strokeColor=#6c8ebf;" vertex="1" parent="1">
          <mxGeometry x="188.5" y="234" width="169" height="26" as="geometry" />
        </mxCell>
        <mxCell id="7H8No6hqOHkvQwwdOSy6-16" value="Login" style="rounded=1;whiteSpace=wrap;html=1;fillColor=#dae8fc;strokeColor=#6c8ebf;" vertex="1" parent="1">
          <mxGeometry x="240.5" y="312" width="65" height="26" as="geometry" />
        </mxCell>
        <mxCell id="7H8No6hqOHkvQwwdOSy6-36" value="" style="edgeStyle=orthogonalEdgeStyle;rounded=0;orthogonalLoop=1;jettySize=auto;html=1;fontFamily=Comic Sans MS;" edge="1" parent="1" source="7H8No6hqOHkvQwwdOSy6-24" target="7H8No6hqOHkvQwwdOSy6-35">
          <mxGeometry relative="1" as="geometry" />
        </mxCell>
        <mxCell id="7H8No6hqOHkvQwwdOSy6-24" value="berhasil&amp;nbsp;" style="rhombus;whiteSpace=wrap;html=1;" vertex="1" parent="1">
          <mxGeometry x="507" y="207" width="80" height="80" as="geometry" />
        </mxCell>
        <mxCell id="7H8No6hqOHkvQwwdOSy6-46" value="" style="edgeStyle=orthogonalEdgeStyle;rounded=0;orthogonalLoop=1;jettySize=auto;html=1;fontFamily=Comic Sans MS;" edge="1" parent="1" source="7H8No6hqOHkvQwwdOSy6-35" target="7H8No6hqOHkvQwwdOSy6-45">
          <mxGeometry relative="1" as="geometry" />
        </mxCell>
        <mxCell id="7H8No6hqOHkvQwwdOSy6-35" value="" style="whiteSpace=wrap;html=1;fillColor=#d5e8d4;strokeColor=#82b366;" vertex="1" parent="1">
          <mxGeometry x="663" y="84.5" width="302" height="325" as="geometry" />
        </mxCell>
        <mxCell id="7H8No6hqOHkvQwwdOSy6-37" value="Menu Pencarian Barang" style="rounded=0;whiteSpace=wrap;html=1;fontFamily=Comic Sans MS;strokeColor=#b85450;fillColor=#f8cecc;" vertex="1" parent="1">
          <mxGeometry x="676.5" y="104" width="169" height="39" as="geometry" />
        </mxCell>
        <mxCell id="7H8No6hqOHkvQwwdOSy6-38" value="foto user" style="ellipse;whiteSpace=wrap;html=1;aspect=fixed;fontFamily=Comic Sans MS;strokeColor=#b85450;fillColor=#f8cecc;" vertex="1" parent="1">
          <mxGeometry x="871.5" y="128" width="80" height="80" as="geometry" />
        </mxCell>
        <mxCell id="7H8No6hqOHkvQwwdOSy6-39" value="informasi&amp;nbsp;" style="whiteSpace=wrap;html=1;aspect=fixed;fontFamily=Comic Sans MS;strokeColor=#b85450;fillColor=#f8cecc;" vertex="1" parent="1">
          <mxGeometry x="676.5" y="182" width="169" height="169" as="geometry" />
        </mxCell>
        <mxCell id="7H8No6hqOHkvQwwdOSy6-40" value="biodata" style="whiteSpace=wrap;html=1;aspect=fixed;fontFamily=Comic Sans MS;strokeColor=#b85450;fillColor=#f8cecc;" vertex="1" parent="1">
          <mxGeometry x="871.5" y="232" width="80" height="80" as="geometry" />
        </mxCell>
        <mxCell id="7H8No6hqOHkvQwwdOSy6-42" value="Benar" style="text;html=1;strokeColor=none;fillColor=none;align=center;verticalAlign=middle;whiteSpace=wrap;rounded=0;fontFamily=Comic Sans MS;" vertex="1" parent="1">
          <mxGeometry x="587" y="208" width="60" height="30" as="geometry" />
        </mxCell>
        <mxCell id="7H8No6hqOHkvQwwdOSy6-43" value="" style="endArrow=classic;html=1;rounded=0;fontFamily=Comic Sans MS;exitX=0.5;exitY=1;exitDx=0;exitDy=0;" edge="1" parent="1" source="7H8No6hqOHkvQwwdOSy6-24" target="7H8No6hqOHkvQwwdOSy6-12">
          <mxGeometry width="50" height="50" relative="1" as="geometry">
            <mxPoint x="455" y="466" as="sourcePoint" />
            <mxPoint x="286" y="455" as="targetPoint" />
            <Array as="points">
              <mxPoint x="547" y="416" />
              <mxPoint x="273" y="416" />
            </Array>
          </mxGeometry>
        </mxCell>
        <mxCell id="7H8No6hqOHkvQwwdOSy6-44" value="salah" style="text;html=1;strokeColor=none;fillColor=none;align=center;verticalAlign=middle;whiteSpace=wrap;rounded=0;fontFamily=Comic Sans MS;" vertex="1" parent="1">
          <mxGeometry x="494" y="379.5" width="60" height="30" as="geometry" />
        </mxCell>
        <mxCell id="7H8No6hqOHkvQwwdOSy6-45" value="" style="whiteSpace=wrap;html=1;fillColor=#d5e8d4;strokeColor=#82b366;" vertex="1" parent="1">
          <mxGeometry x="1045" y="84.5" width="302" height="325" as="geometry" />
        </mxCell>
        <mxCell id="7H8No6hqOHkvQwwdOSy6-47" value="Daftar Barang&amp;nbsp;" style="rounded=0;whiteSpace=wrap;html=1;fontFamily=Comic Sans MS;strokeColor=#b85450;fillColor=#f8cecc;" vertex="1" parent="1">
          <mxGeometry x="1066" y="130" width="169" height="227.5" as="geometry" />
        </mxCell>
        <mxCell id="7H8No6hqOHkvQwwdOSy6-48" value="foto user" style="ellipse;whiteSpace=wrap;html=1;aspect=fixed;fontFamily=Comic Sans MS;strokeColor=#b85450;fillColor=#f8cecc;" vertex="1" parent="1">
          <mxGeometry x="1248" y="104" width="91" height="91" as="geometry" />
        </mxCell>
        <mxCell id="7H8No6hqOHkvQwwdOSy6-50" value="Cek ketersediaan" style="rounded=1;whiteSpace=wrap;html=1;fontFamily=Comic Sans MS;strokeColor=#b85450;fillColor=#f8cecc;" vertex="1" parent="1">
          <mxGeometry x="1092" y="364" width="117" height="21" as="geometry" />
        </mxCell>
        <mxCell id="7H8No6hqOHkvQwwdOSy6-56" value="" style="edgeStyle=orthogonalEdgeStyle;rounded=0;orthogonalLoop=1;jettySize=auto;html=1;fontFamily=Comic Sans MS;" edge="1" parent="1" source="7H8No6hqOHkvQwwdOSy6-45" target="7H8No6hqOHkvQwwdOSy6-55">
          <mxGeometry relative="1" as="geometry">
            <Array as="points">
              <mxPoint x="1196" y="455" />
              <mxPoint x="1578" y="455" />
            </Array>
          </mxGeometry>
        </mxCell>
        <mxCell id="7H8No6hqOHkvQwwdOSy6-66" value="" style="edgeStyle=orthogonalEdgeStyle;rounded=0;orthogonalLoop=1;jettySize=auto;html=1;fontFamily=Comic Sans MS;" edge="1" parent="1" source="7H8No6hqOHkvQwwdOSy6-51" target="7H8No6hqOHkvQwwdOSy6-45">
          <mxGeometry relative="1" as="geometry" />
        </mxCell>
        <mxCell id="7H8No6hqOHkvQwwdOSy6-51" value="" style="whiteSpace=wrap;html=1;fillColor=#d5e8d4;strokeColor=#82b366;" vertex="1" parent="1">
          <mxGeometry x="1427" y="84.5" width="302" height="325" as="geometry" />
        </mxCell>
        <mxCell id="7H8No6hqOHkvQwwdOSy6-58" value="" style="edgeStyle=orthogonalEdgeStyle;rounded=0;orthogonalLoop=1;jettySize=auto;html=1;fontFamily=Comic Sans MS;" edge="1" parent="1" source="7H8No6hqOHkvQwwdOSy6-55" target="7H8No6hqOHkvQwwdOSy6-57">
          <mxGeometry relative="1" as="geometry" />
        </mxCell>
        <mxCell id="7H8No6hqOHkvQwwdOSy6-55" value="" style="rhombus;whiteSpace=wrap;html=1;" vertex="1" parent="1">
          <mxGeometry x="1538" y="481" width="80" height="80" as="geometry" />
        </mxCell>
        <mxCell id="7H8No6hqOHkvQwwdOSy6-77" value="" style="edgeStyle=orthogonalEdgeStyle;rounded=0;orthogonalLoop=1;jettySize=auto;html=1;fontFamily=Comic Sans MS;" edge="1" parent="1" source="7H8No6hqOHkvQwwdOSy6-57" target="7H8No6hqOHkvQwwdOSy6-76">
          <mxGeometry relative="1" as="geometry" />
        </mxCell>
        <mxCell id="7H8No6hqOHkvQwwdOSy6-57" value="" style="whiteSpace=wrap;html=1;fillColor=#d5e8d4;strokeColor=#82b366;" vertex="1" parent="1">
          <mxGeometry x="104" y="455" width="308" height="289" as="geometry" />
        </mxCell>
        <mxCell id="7H8No6hqOHkvQwwdOSy6-59" value="" style="endArrow=classic;html=1;rounded=0;fontFamily=Comic Sans MS;exitX=1;exitY=0.5;exitDx=0;exitDy=0;" edge="1" parent="1" source="7H8No6hqOHkvQwwdOSy6-55" target="7H8No6hqOHkvQwwdOSy6-51">
          <mxGeometry width="50" height="50" relative="1" as="geometry">
            <mxPoint x="1235" y="414" as="sourcePoint" />
            <mxPoint x="1833" y="234" as="targetPoint" />
            <Array as="points">
              <mxPoint x="1833" y="520" />
              <mxPoint x="1833" y="247" />
            </Array>
          </mxGeometry>
        </mxCell>
        <mxCell id="7H8No6hqOHkvQwwdOSy6-60" value="Daftar Barang&amp;nbsp;" style="rounded=0;whiteSpace=wrap;html=1;fontFamily=Comic Sans MS;strokeColor=#b85450;fillColor=#f8cecc;" vertex="1" parent="1">
          <mxGeometry x="1441.5" y="124.5" width="169" height="227.5" as="geometry" />
        </mxCell>
        <mxCell id="7H8No6hqOHkvQwwdOSy6-61" value="foto user" style="ellipse;whiteSpace=wrap;html=1;aspect=fixed;fontFamily=Comic Sans MS;strokeColor=#b85450;fillColor=#f8cecc;" vertex="1" parent="1">
          <mxGeometry x="1623.5" y="98.5" width="91" height="91" as="geometry" />
        </mxCell>
        <mxCell id="7H8No6hqOHkvQwwdOSy6-62" value="Cek ketersediaan" style="rounded=1;whiteSpace=wrap;html=1;fontFamily=Comic Sans MS;strokeColor=#b85450;fillColor=#f8cecc;" vertex="1" parent="1">
          <mxGeometry x="1467.5" y="358.5" width="117" height="21" as="geometry" />
        </mxCell>
        <mxCell id="7H8No6hqOHkvQwwdOSy6-63" value="Barang Kosong Silahkan cari yg lain" style="whiteSpace=wrap;html=1;aspect=fixed;fontFamily=Comic Sans MS;strokeColor=#b85450;fillColor=#f8cecc;" vertex="1" parent="1">
          <mxGeometry x="1629" y="234" width="80" height="80" as="geometry" />
        </mxCell>
        <mxCell id="7H8No6hqOHkvQwwdOSy6-67" value="Daftar Barang&amp;nbsp;" style="rounded=0;whiteSpace=wrap;html=1;fontFamily=Comic Sans MS;strokeColor=#b85450;fillColor=#f8cecc;" vertex="1" parent="1">
          <mxGeometry x="117" y="468" width="169" height="227.5" as="geometry" />
        </mxCell>
        <mxCell id="7H8No6hqOHkvQwwdOSy6-68" value="foto user" style="ellipse;whiteSpace=wrap;html=1;aspect=fixed;fontFamily=Comic Sans MS;strokeColor=#b85450;fillColor=#f8cecc;" vertex="1" parent="1">
          <mxGeometry x="305.5" y="463" width="91" height="91" as="geometry" />
        </mxCell>
        <mxCell id="7H8No6hqOHkvQwwdOSy6-69" value="lakukan pembayaran" style="rounded=1;whiteSpace=wrap;html=1;fontFamily=Comic Sans MS;strokeColor=#b85450;fillColor=#f8cecc;" vertex="1" parent="1">
          <mxGeometry x="274" y="702" width="117" height="21" as="geometry" />
        </mxCell>
        <mxCell id="7H8No6hqOHkvQwwdOSy6-70" value="Barang tersediaa&amp;nbsp;" style="whiteSpace=wrap;html=1;aspect=fixed;fontFamily=Comic Sans MS;strokeColor=#b85450;fillColor=#f8cecc;" vertex="1" parent="1">
          <mxGeometry x="311" y="598.5" width="80" height="80" as="geometry" />
        </mxCell>
        <mxCell id="7H8No6hqOHkvQwwdOSy6-72" value="IYAA" style="text;html=1;strokeColor=none;fillColor=none;align=center;verticalAlign=middle;whiteSpace=wrap;rounded=0;fontFamily=Comic Sans MS;" vertex="1" parent="1">
          <mxGeometry x="1456" y="524" width="60" height="30" as="geometry" />
        </mxCell>
        <mxCell id="7H8No6hqOHkvQwwdOSy6-73" value="Tidak" style="text;html=1;strokeColor=none;fillColor=none;align=center;verticalAlign=middle;whiteSpace=wrap;rounded=0;fontFamily=Comic Sans MS;" vertex="1" parent="1">
          <mxGeometry x="1629" y="524" width="60" height="30" as="geometry" />
        </mxCell>
        <mxCell id="7H8No6hqOHkvQwwdOSy6-84" value="" style="edgeStyle=orthogonalEdgeStyle;rounded=0;orthogonalLoop=1;jettySize=auto;html=1;fontFamily=Comic Sans MS;" edge="1" parent="1" source="7H8No6hqOHkvQwwdOSy6-76" target="7H8No6hqOHkvQwwdOSy6-83">
          <mxGeometry relative="1" as="geometry" />
        </mxCell>
        <mxCell id="7H8No6hqOHkvQwwdOSy6-76" value="" style="whiteSpace=wrap;html=1;fillColor=#d5e8d4;strokeColor=#82b366;" vertex="1" parent="1">
          <mxGeometry x="104" y="793" width="308" height="289" as="geometry" />
        </mxCell>
        <mxCell id="7H8No6hqOHkvQwwdOSy6-80" value="Melakuakn Pembayaran" style="rounded=0;whiteSpace=wrap;html=1;fontFamily=Comic Sans MS;strokeColor=#b85450;fillColor=#f8cecc;" vertex="1" parent="1">
          <mxGeometry x="198" y="806" width="120" height="60" as="geometry" />
        </mxCell>
        <mxCell id="7H8No6hqOHkvQwwdOSy6-81" value="Nomor rekening&lt;br&gt;1298401923" style="rounded=1;whiteSpace=wrap;html=1;fontFamily=Comic Sans MS;strokeColor=#b85450;fillColor=#f8cecc;" vertex="1" parent="1">
          <mxGeometry x="198" y="1001" width="120" height="60" as="geometry" />
        </mxCell>
        <mxCell id="7H8No6hqOHkvQwwdOSy6-82" value="Jumlah harga bring yg di pilait" style="rounded=1;whiteSpace=wrap;html=1;fontFamily=Comic Sans MS;strokeColor=#b85450;fillColor=#f8cecc;" vertex="1" parent="1">
          <mxGeometry x="198" y="897" width="120" height="60" as="geometry" />
        </mxCell>
        <mxCell id="7H8No6hqOHkvQwwdOSy6-87" value="" style="edgeStyle=orthogonalEdgeStyle;rounded=0;orthogonalLoop=1;jettySize=auto;html=1;fontFamily=Comic Sans MS;" edge="1" parent="1" source="7H8No6hqOHkvQwwdOSy6-83" target="7H8No6hqOHkvQwwdOSy6-86">
          <mxGeometry relative="1" as="geometry" />
        </mxCell>
        <mxCell id="7H8No6hqOHkvQwwdOSy6-83" value="" style="whiteSpace=wrap;html=1;fillColor=#d5e8d4;strokeColor=#82b366;" vertex="1" parent="1">
          <mxGeometry x="492" y="793" width="308" height="289" as="geometry" />
        </mxCell>
        <mxCell id="7H8No6hqOHkvQwwdOSy6-85" value="Menunggu konfirmasi admin" style="rounded=1;whiteSpace=wrap;html=1;fontFamily=Comic Sans MS;strokeColor=#b85450;fillColor=#f8cecc;" vertex="1" parent="1">
          <mxGeometry x="587" y="907.5" width="120" height="60" as="geometry" />
        </mxCell>
        <mxCell id="7H8No6hqOHkvQwwdOSy6-86" value="" style="whiteSpace=wrap;html=1;fillColor=#d5e8d4;strokeColor=#82b366;" vertex="1" parent="1">
          <mxGeometry x="1014" y="793" width="308" height="289" as="geometry" />
        </mxCell>
        <mxCell id="7H8No6hqOHkvQwwdOSy6-88" value="Admin severing mengurus pesanan anda untuk dikirim" style="rounded=1;whiteSpace=wrap;html=1;fontFamily=Comic Sans MS;strokeColor=#b85450;fillColor=#f8cecc;" vertex="1" parent="1">
          <mxGeometry x="1092" y="877.5" width="162" height="99" as="geometry" />
        </mxCell>
      </root>
    </mxGraphModel>
  </diagram>
</mxfile>
